# xmcd
#
# Track frame offsets:
#	150
#	18811
#	29835
#	54411
#	76635
#	97758
#	122335
#	142770
#	177649
#	189617
#	219919
#	255059
#	272059
#	291115
#
# Disc length: 4529 seconds
#
# Revision: 1
# Processed by: cddbd v1.5.2PL0 Copyright (c) Steve Scherf et al.
# Submitted via: EZCDAudioConverter 7.0.6.1
#
DISCID=ae11af0e
DTITLE=Fairport Convention - Come All Ye 2/7
DYEAR=1900
DGENRE=
TTITLE0=Dear Landlord
TTITLE1=Si Tu Dois Partir [BBC Session]
TTITLE2=Percy's Song [BBC Session]
TTITLE3=The Ballad Of Easy Rider
TTITLE4=The Deserter [Rehearsal Version]
TTITLE5=Come All Ye [Take 1]
TTITLE6=Reynardine
TTITLE7=Matty Groves [Take 1]
TTITLE8=Farewell, Farewell
TTITLE9=Quiet Joys Of Brotherhood [Take 1/Edit]
TTITLE10=Tam Lin [BBC Session]
TTITLE11=Sir Patrick Spens [BBC Session]
TTITLE12=The Lark In The Morning/Rakish Paddy/Foxhunter's Jig/Toss The Feather
TTITLE12=s [BBC Session]
TTITLE13=Bonny Bunch Of Roses
EXTD=
EXTT0=
EXTT1=
EXTT2=
EXTT3=
EXTT4=
EXTT5=
EXTT6=
EXTT7=
EXTT8=
EXTT9=
EXTT10=
EXTT11=
EXTT12=
EXTT13=
PLAYORDER=
